<?xml version="1.0" encoding="utf-8"?>
<!-- Generator: Adobe Illustrator 16.0.0, SVG Export Plug-In . SVG Version: 6.00 Build 0)  -->
<!DOCTYPE svg PUBLIC "-//W3C//DTD SVG 1.1//EN" "http://www.w3.org/Graphics/SVG/1.1/DTD/svg11.dtd">
<svg version="1.1" id="Layer_1" xmlns="http://www.w3.org/2000/svg" xmlns:xlink="http://www.w3.org/1999/xlink" x="0px" y="0px"
	 width="969.85px" height="596.566px" viewBox="0 0 969.85 596.566" enable-background="new 0 0 969.85 596.566"
	 xml:space="preserve">
<g id="Content_2_">
	
		<circle fill="none" stroke="#000000" stroke-width="3.8" stroke-linecap="round" stroke-linejoin="round" stroke-miterlimit="10" stroke-dasharray="0,11" cx="512.908" cy="294.839" r="215.629"/>
	<g id="Code_Reusability_4_">
		<text transform="matrix(1 0 0 1 121.998 152.2021)" font-family="'Helvetica Neue LT Std'" style="font-weight:600;" font-size="18">Easy &amp; quick testing</text>
		<circle fill="#ED2631" cx="361.259" cy="144.202" r="46.001"/>
		<g display="none">
			
				<path display="inline" fill="none" stroke="#FFFFFF" stroke-width="2" stroke-linecap="round" stroke-linejoin="round" stroke-miterlimit="10" d="
				M354.388,149.619v-22.277c0-1.391,1.128-2.517,2.518-2.517c1.391,0,2.518,1.126,2.518,2.517v13.845 M354.515,159.561
				l-7.426-12.209c-0.629-1.238-0.136-2.754,1.104-3.384c0.011-0.004,0.019-0.009,0.029-0.014c1.239-0.629,2.754-0.135,3.384,1.104
				c0.005,0.01,0.009,0.02,0.014,0.028l2.769,4.532 M359.423,137.409c0-1.39,1.127-2.518,2.518-2.518
				c1.39,0,2.517,1.128,2.517,2.518v5.035 M364.457,138.669c0-1.391,1.127-2.518,2.518-2.518c1.39,0,2.517,1.127,2.517,2.518v5.034"
				/>
			
				<path display="inline" fill="none" stroke="#FFFFFF" stroke-width="2" stroke-linecap="round" stroke-linejoin="round" stroke-miterlimit="10" d="
				M354.515,159.561c1.156,1.878,3.206,3.021,5.412,3.021h8.307c3.476,0,6.293-2.817,6.293-6.293v-15.103
				c0-1.391-1.127-2.517-2.517-2.517c-1.391,0-2.519,1.126-2.519,2.517"/>
		</g>
		<g>
			<path fill="none" stroke="#FFFFFF" stroke-width="2" stroke-linecap="round" stroke-linejoin="round" stroke-miterlimit="10" d="
				M370.217,142.982c-1.795,2.113-4.259,3.546-6.982,4.06 M353.83,144.977c-5.403-3.945-6.585-11.522-2.64-16.925
				c3.944-5.402,11.52-6.584,16.923-2.641c4.225,3.085,5.992,8.533,4.385,13.509"/>
			<path fill="none" stroke="#FFFFFF" stroke-width="2" stroke-linecap="round" stroke-linejoin="round" stroke-miterlimit="10" d="
				M349.412,138.921c6.565-1.282,12.928,3,14.21,9.564c1.283,6.566-3,12.927-9.564,14.21c-6.565,1.283-12.928-3-14.21-9.564
				c-0.96-4.911,1.198-9.905,5.432-12.572"/>
			<path fill="none" stroke="#FFFFFF" stroke-width="2" stroke-linecap="round" stroke-linejoin="round" stroke-miterlimit="10" d="
				M360.955,158.656c-2.679-3.149-3.565-7.448-2.353-11.4 M360.955,142.982c4.325-5.103,11.969-5.732,17.07-1.406
				c5.103,4.325,5.732,11.968,1.405,17.07c-3.488,4.116-9.28,5.427-14.201,3.216"/>
		</g>
	</g>
	<g id="Code_Reusability_5_">
		<text transform="matrix(1 0 0 1 462.2197 15.4619)" font-family="'Helvetica Neue LT Std'" style="font-weight:600;" font-size="18">Performance</text>
		<circle fill="#337AE2" cx="513.075" cy="82.467" r="46.001"/>
		<g display="none">
			<path display="inline" fill="none" stroke="#FFFFFF" stroke-width="2" stroke-linecap="round" stroke-linejoin="round" d="
				M492.631,65.526h39.71v7.942h-39.71V65.526z M492.631,73.468v26.473h39.71V73.468"/>
			<path display="inline" fill="none" stroke="#FFFFFF" stroke-width="2" stroke-linecap="round" stroke-linejoin="round" d="
				M499.25,78.763h5.294v5.295h-5.294V78.763z M509.838,78.763h5.296v5.295h-5.296V78.763z M520.428,78.763h5.295v5.295h-5.295
				V78.763z M499.25,89.352h5.294v5.295h-5.294V89.352z M509.838,89.352h5.296v5.295h-5.296V89.352z M520.428,89.352h5.295v5.295
				h-5.295V89.352z"/>
			
				<circle display="inline" fill="none" stroke="#FFFFFF" stroke-width="2" stroke-linecap="round" stroke-linejoin="round" cx="496.602" cy="69.498" r="0.662"/>
			
				<circle display="inline" fill="none" stroke="#FFFFFF" stroke-width="2" stroke-linecap="round" stroke-linejoin="round" cx="501.234" cy="69.498" r="0.662"/>
			
				<circle display="inline" fill="none" stroke="#FFFFFF" stroke-width="2" stroke-linecap="round" stroke-linejoin="round" cx="505.867" cy="69.498" r="0.662"/>
		</g>
		<g>
			<path fill="none" stroke="#FFFFFF" stroke-width="2" stroke-linecap="round" stroke-linejoin="round" stroke-miterlimit="10" d="
				M519.982,64.244l5.82,1.164l-0.525,5.819 M523.475,99.162V77.047h4.655v22.115"/>
			<path fill="none" stroke="#FFFFFF" stroke-width="2" stroke-linecap="round" stroke-linejoin="round" stroke-miterlimit="10" d="
				M514.162,99.162V82.867h4.656v16.295"/>
			<path fill="none" stroke="#FFFFFF" stroke-width="2" stroke-linecap="round" stroke-linejoin="round" stroke-miterlimit="10" d="
				M504.852,99.162V88.686h4.656v10.476"/>
			<path fill="none" stroke="#FFFFFF" stroke-width="2" stroke-linecap="round" stroke-linejoin="round" stroke-miterlimit="10" d="
				M495.54,99.162v-4.656h4.655v4.656"/>
			<path fill="none" stroke="#FFFFFF" stroke-width="2" stroke-linecap="round" stroke-linejoin="round" stroke-miterlimit="10" d="
				M529.294,99.162h-34.918 M525.803,65.408l-27.936,22.114"/>
		</g>
	</g>
	<g id="Code_Reusability_3_">
		<text transform="matrix(1 0 0 1 0 302.2026)" font-family="'Helvetica Neue LT Std'" style="font-weight:600;" font-size="18">Easy to learn and implement</text>
		<circle fill="#F05722" cx="303.259" cy="294.202" r="46.001"/>
		<g display="none">
			
				<path display="inline" fill="none" stroke="#FFFFFF" stroke-width="2" stroke-linecap="round" stroke-linejoin="round" stroke-miterlimit="10" d="
				M302.835,280.613c-13.849,0-23.751,14.089-23.751,14.089s9.902,14.09,23.751,14.09s23.751-14.09,23.751-14.09
				S316.684,280.613,302.835,280.613z"/>
			
				<circle display="inline" fill="none" stroke="#FFFFFF" stroke-width="2" stroke-linecap="round" stroke-linejoin="round" stroke-miterlimit="10" cx="302.835" cy="294.3" r="8.051"/>
			
				<path display="inline" fill="none" stroke="#FFFFFF" stroke-width="2" stroke-linecap="round" stroke-linejoin="round" stroke-miterlimit="10" d="
				M300.017,292.69c-0.89,1.54-0.362,3.511,1.18,4.399c0.498,0.287,1.063,0.437,1.639,0.432"/>
		</g>
		<g>
			
				<circle fill="none" stroke="#FFFFFF" stroke-width="2" stroke-linecap="round" stroke-linejoin="round" cx="286.671" cy="283.685" r="0.716"/>
			
				<circle fill="none" stroke="#FFFFFF" stroke-width="2" stroke-linecap="round" stroke-linejoin="round" cx="291.677" cy="283.685" r="0.716"/>
			
				<circle fill="none" stroke="#FFFFFF" stroke-width="2" stroke-linecap="round" stroke-linejoin="round" cx="296.684" cy="283.685" r="0.716"/>
			<path fill="none" stroke="#FFFFFF" stroke-width="2" stroke-linecap="round" stroke-linejoin="round" d="M282.381,279.394h37.188
				v8.582h-37.188V279.394z M319.568,295.841v-7.865 M282.381,287.976v22.885h22.885"/>
			<path fill="none" stroke="#FFFFFF" stroke-width="2" stroke-linecap="round" stroke-linejoin="round" d="M320.283,295.127
				l-14.875,14.804l-3.146,8.08l8.151-3.074l14.876-14.804L320.283,295.127z M305.408,309.931l5.005,5.006"/>
		</g>
	</g>
	<g id="Code_Reusability_2_">
		<text transform="matrix(1 0 0 1 90.6514 450.7983)" font-family="'Helvetica Neue LT Std'" style="font-weight:600;" font-size="18">Faster app development</text>
		<circle fill="#337AE2" cx="360.179" cy="438.47" r="46.001"/>
		<g display="none">
			
				<path display="inline" fill="none" stroke="#FFFFFF" stroke-width="2" stroke-linecap="round" stroke-linejoin="round" stroke-miterlimit="10" d="
				M359.822,432.873l-14.411-14.41l-7.843,7.844l14.35,14.461"/>
			
				<path display="inline" fill="none" stroke="#FFFFFF" stroke-width="2" stroke-linecap="round" stroke-linejoin="round" stroke-miterlimit="10" d="
				M348.851,455.522l26.68-26.649l-5.851-5.85l-26.679,26.65l-4.652,10.502L348.851,455.522L348.851,455.522z M375.53,428.873
				l4.572-4.567l-5.851-5.85l-4.572,4.567"/>
			
				<path display="inline" fill="none" stroke="#FFFFFF" stroke-width="2" stroke-linecap="round" stroke-linejoin="round" stroke-miterlimit="10" d="
				M357.744,446.64l14.2,14.31l7.977-7.977l-14.249-14.251 M367.23,456.113l4.007-4.008 M347.095,435.907l4.412-4.415
				 M362.831,451.764l3.279-3.28 M342.499,431.277l3.239-3.237"/>
			
				<path display="inline" fill="none" stroke="#FFFFFF" stroke-width="2" stroke-linecap="round" stroke-linejoin="round" stroke-miterlimit="10" d="
				M343.001,449.673l5.85,5.849"/>
		</g>
		<g display="none">
			
				<path display="inline" fill="none" stroke="#FFFFFF" stroke-width="2" stroke-linecap="round" stroke-linejoin="round" stroke-miterlimit="10" d="
				M378.103,417.806v8.423h-8.422 M359.574,462.442c-12.558-0.001-22.737-10.183-22.736-22.741s10.183-22.737,22.741-22.736
				c7.229,0,14.028,3.439,18.313,9.265 M370.511,459.644c-1.848,1.016-3.828,1.768-5.884,2.234 M377.893,453.177
				c-1.142,1.551-2.475,2.949-3.968,4.164 M381.295,446.452c-0.354,1.144-0.8,2.256-1.33,3.327"/>
			
				<circle display="inline" fill="none" stroke="#FFFFFF" stroke-width="2" stroke-linecap="round" stroke-linejoin="round" stroke-miterlimit="10" cx="359.574" cy="439.703" r="2.527"/>
			
				<path display="inline" fill="none" stroke="#FFFFFF" stroke-width="2" stroke-linecap="round" stroke-linejoin="round" stroke-miterlimit="10" d="
				M361.227,441.607l8.454,6.518 M359.574,422.859v14.317"/>
		</g>
		<g>
			<path fill="none" stroke="#FFFFFF" stroke-width="2" stroke-linecap="round" stroke-linejoin="round" d="M337.294,433.941v16.529
				l22.603,10.52l22.479-10.52v-16.529l-22.541,10.555L337.294,433.941z M359.835,444.496v16.494 M378.869,432.304l3.507,1.637
				 M363.937,425.335l6.873,3.208 M348.846,428.55l6.873-3.209 M337.294,433.941l3.563-1.664"/>
			
				<ellipse fill="none" stroke="#FFFFFF" stroke-width="2" stroke-linecap="round" stroke-linejoin="round" cx="345.56" cy="430.935" rx="5.259" ry="3.006"/>
			
				<ellipse fill="none" stroke="#FFFFFF" stroke-width="2" stroke-linecap="round" stroke-linejoin="round" cx="359.835" cy="435.443" rx="5.26" ry="3.005"/>
			
				<ellipse fill="none" stroke="#FFFFFF" stroke-width="2" stroke-linecap="round" stroke-linejoin="round" cx="359.835" cy="423.421" rx="5.26" ry="3.006"/>
			
				<ellipse fill="none" stroke="#FFFFFF" stroke-width="2" stroke-linecap="round" stroke-linejoin="round" cx="374.11" cy="430.935" rx="5.261" ry="3.006"/>
		</g>
	</g>
	<g id="Code_Reusability_1_">
		<text transform="matrix(1 0 0 1 437.5234 592.4624)" font-family="'Helvetica Neue LT Std'" style="font-weight:600;" font-size="18">Code Reusability</text>
		<circle fill="#049F34" cx="513.075" cy="510.467" r="46.001"/>
		<g>
			<path fill="none" stroke="#FFFFFF" stroke-width="2" stroke-linecap="round" stroke-linejoin="round" d="M491.9,503.578v25.873
				h43.119v-25.873 M491.9,494.955h43.119v8.623H491.9V494.955z"/>
			<path fill="none" stroke="#FFFFFF" stroke-width="2" stroke-linecap="round" stroke-linejoin="round" d="M522.084,510.765
				l5.031,5.75l-5.031,5.749 M504.836,510.765l-5.031,5.75l5.031,5.749 M516.335,509.327l-5.75,14.374"/>
			
				<circle fill="none" stroke="#FFFFFF" stroke-width="2" stroke-linecap="round" stroke-linejoin="round" cx="496.213" cy="499.266" r="0.718"/>
			
				<circle fill="none" stroke="#FFFFFF" stroke-width="2" stroke-linecap="round" stroke-linejoin="round" cx="501.242" cy="499.266" r="0.718"/>
			
				<circle fill="none" stroke="#FFFFFF" stroke-width="2" stroke-linecap="round" stroke-linejoin="round" cx="506.273" cy="499.266" r="0.718"/>
		</g>
	</g>
	<g id="Plug__x26__Play_Development">
		<text transform="matrix(1 0 0 1 730.5537 455.4683)" font-family="'Helvetica Neue LT Std'" style="font-weight:600;" font-size="18">Native app development</text>
		<circle fill="#ED2631" cx="661.966" cy="447.467" r="46.001"/>
		<g>
			<path fill="none" stroke="#FFFFFF" stroke-width="2" stroke-linecap="round" stroke-linejoin="round" d="M650.043,466.39
				c0,1.086,0.881,1.967,1.965,1.967h19.653c1.085,0,1.966-0.881,1.966-1.967v-5.896h-23.584V466.39z M673.627,431.015
				c0-1.086-0.881-1.965-1.966-1.965h-19.653c-1.084,0-1.965,0.879-1.965,1.965v3.275h23.584V431.015z M673.627,460.494v-26.203
				 M650.043,434.291v26.203"/>
			
				<circle fill="none" stroke="#FFFFFF" stroke-width="2" stroke-linecap="round" stroke-linejoin="round" cx="661.835" cy="464.425" r="1.311"/>
		</g>
		<g>
			<path fill="none" stroke="#FFFFFF" stroke-width="2" stroke-linecap="round" stroke-linejoin="round" d="M667.111,444.56
				l3.077,3.518l-3.077,3.518 M656.559,444.56l-3.078,3.518l3.078,3.518 M663.594,443.681l-3.518,8.793"/>
		</g>
	</g>
	<g id="Code_Reusability">
		<text transform="matrix(1 0 0 1 793.8467 302.2026)" font-family="'Helvetica Neue LT Std'" style="font-weight:600;" font-size="18">Server side rendering</text>
		<circle fill="#F05722" cx="724.259" cy="294.202" r="46.001"/>
		<g display="none">
			
				<path display="inline" fill="none" stroke="#FFFFFF" stroke-width="2" stroke-linecap="round" stroke-linejoin="round" stroke-miterlimit="10" d="
				M712.484,304.199h-4.854v-26.7h26.699v4.854"/>
			
				<path display="inline" fill="none" stroke="#FFFFFF" stroke-width="2" stroke-linecap="round" stroke-linejoin="round" stroke-miterlimit="10" d="
				M717.34,309.052h-4.855v-26.699h26.699v4.854"/>
			
				<path display="inline" fill="none" stroke="#FFFFFF" stroke-width="2" stroke-linecap="round" stroke-linejoin="round" stroke-miterlimit="10" d="
				M717.34,287.208h26.699v26.699H717.34V287.208z M717.34,307.839h26.699"/>
			
				<circle display="inline" fill="none" stroke="#FFFFFF" stroke-width="2" stroke-linecap="round" stroke-linejoin="round" stroke-miterlimit="10" cx="723.408" cy="293.275" r="2.428"/>
			
				<path display="inline" fill="none" stroke="#FFFFFF" stroke-width="2" stroke-linecap="round" stroke-linejoin="round" stroke-miterlimit="10" d="
				M720.98,307.839c0-1.699,0.364-8.495,4.43-8.495c4.066,0,2.488,3.64,4.066,3.64c1.577,0,0.363-9.707,4.854-9.707
				s6.068,13.228,6.068,14.563"/>
		</g>
		<g>
			<path fill="none" stroke="#FFFFFF" stroke-width="2" stroke-linecap="round" stroke-linejoin="round" d="M741.844,309.464
				l3.605,3.605l3.604-3.605 M732.206,310.486l-3.605-3.681l-3.606,3.681"/>
			<path fill="none" stroke="#FFFFFF" stroke-width="2" stroke-linecap="round" stroke-linejoin="round" d="M741.346,317.898
				c-3.485,1.906-7.813,1.262-10.592-1.578c-2.436-2.471-3.252-6.114-2.102-9.389 M732.858,301.974
				c3.483-1.906,7.812-1.263,10.589,1.577c2.41,2.487,3.196,6.129,2.029,9.39"/>
			<path fill="none" stroke="#FFFFFF" stroke-width="2" stroke-linecap="round" stroke-linejoin="round" d="M728.652,312.941
				h-22.534c-0.829,0-1.502-0.674-1.502-1.503V278.39c0-0.83,0.673-1.501,1.502-1.501h36.054c0.829,0,1.501,0.671,1.501,1.501
				v25.461 M737.664,294.914h-12.018 M737.664,282.896h-12.018"/>
			
				<circle fill="none" stroke="#FFFFFF" stroke-width="2" stroke-linecap="round" stroke-linejoin="round" cx="711.375" cy="282.897" r="0.751"/>
			
				<circle fill="none" stroke="#FFFFFF" stroke-width="2" stroke-linecap="round" stroke-linejoin="round" cx="711.375" cy="294.914" r="0.751"/>
			
				<circle fill="none" stroke="#FFFFFF" stroke-width="2" stroke-linecap="round" stroke-linejoin="round" cx="711.375" cy="306.932" r="0.751"/>
			<path fill="none" stroke="#FFFFFF" stroke-width="2" stroke-linecap="round" stroke-linejoin="round" d="M743.673,288.906
				h-39.057 M729.702,300.923h-25.086"/>
		</g>
	</g>
	<g id="Improved_Design_Architecture_1_">
		<text transform="matrix(1 0 0 1 736.8467 142.2021)" font-family="'Helvetica Neue LT Std'" style="font-weight:600;" font-size="18">Quick live app updating</text>
		<circle fill="#FFC400" cx="648.259" cy="137.202" r="46.001"/>
		<g>
			<path fill="none" stroke="#FFFFFF" stroke-width="2" stroke-linecap="round" stroke-linejoin="round" d="M636.043,155.39
				c0,1.086,0.881,1.967,1.965,1.967h19.653c1.085,0,1.966-0.881,1.966-1.967v-5.896h-23.584V155.39z M659.627,120.015
				c0-1.085-0.881-1.965-1.966-1.965h-19.653c-1.084,0-1.965,0.879-1.965,1.965v3.275h23.584V120.015z M659.627,149.494V123.29
				 M636.043,123.29v26.204"/>
			
				<circle fill="none" stroke="#FFFFFF" stroke-width="2" stroke-linecap="round" stroke-linejoin="round" cx="647.835" cy="153.425" r="1.31"/>
		</g>
		<g>
			<path fill="none" stroke="#FFFFFF" stroke-width="2" stroke-linecap="round" stroke-linejoin="round" stroke-miterlimit="10" d="
				M653.689,135.408c0.406,3.244-1.895,6.204-5.14,6.61c-1.814,0.228-3.631-0.395-4.923-1.688"/>
			<path fill="none" stroke="#FFFFFF" stroke-width="2" stroke-linecap="round" stroke-linejoin="round" stroke-miterlimit="10" d="
				M641.932,136.819c-0.372-3.25,1.962-6.185,5.211-6.558c0.223-0.025,0.447-0.039,0.672-0.039c1.569-0.001,3.076,0.622,4.186,1.733
				"/>
			<path fill="none" stroke="#FFFFFF" stroke-width="2" stroke-linecap="round" stroke-linejoin="round" stroke-miterlimit="10" d="
				M640.112,134.342l1.819,2.477l2.301-1.962"/>
			<path fill="none" stroke="#FFFFFF" stroke-width="2" stroke-linecap="round" stroke-linejoin="round" stroke-miterlimit="10" d="
				M655.558,137.946l-1.868-2.538l-2.25,2.022"/>
		</g>
	</g>
	<g>
		<path fill="#61DAFB" d="M610.373,293.85c0-12.785-16.012-24.902-40.56-32.416c5.665-25.02,3.146-44.927-7.946-51.299
			c-2.558-1.496-5.548-2.203-8.813-2.203v8.772c1.81,0,3.265,0.354,4.485,1.023c5.35,3.068,7.671,14.752,5.862,29.78
			c-0.434,3.698-1.142,7.592-2.008,11.566c-7.71-1.888-16.13-3.344-24.981-4.289c-5.311-7.278-10.817-13.887-16.365-19.669
			c12.825-11.92,24.862-18.452,33.046-18.452v-8.772l0,0c-10.818,0-24.98,7.711-39.3,21.086
			c-14.321-13.297-28.483-20.928-39.302-20.928v8.772c8.143,0,20.221,6.491,33.046,18.333c-5.509,5.783-11.016,12.353-16.248,19.63
			c-8.891,0.945-17.31,2.401-25.021,4.329c-0.904-3.935-1.573-7.751-2.046-11.41c-1.85-15.028,0.433-26.712,5.743-29.82
			c1.182-0.708,2.715-1.023,4.525-1.023v-8.773l0,0c-3.304,0-6.295,0.708-8.891,2.203c-11.055,6.373-13.534,26.24-7.829,51.182
			c-24.47,7.554-40.403,19.631-40.403,32.377c0,12.785,16.012,24.903,40.56,32.417c-5.664,25.02-3.146,44.927,7.947,51.3
			c2.557,1.495,5.546,2.203,8.852,2.203c10.819,0,24.983-7.712,39.301-21.087c14.32,13.298,28.483,20.93,39.302,20.93
			c3.304,0,6.295-0.709,8.891-2.203c11.055-6.374,13.533-26.24,7.829-51.182C594.441,318.714,610.373,306.597,610.373,293.85z
			 M559.153,267.611c-1.456,5.074-3.267,10.307-5.312,15.539c-1.613-3.146-3.305-6.294-5.154-9.441
			c-1.811-3.148-3.737-6.216-5.666-9.206C548.608,265.329,553.999,266.351,559.153,267.611z M541.134,309.507
			c-3.068,5.312-6.216,10.347-9.481,15.028c-5.861,0.513-11.801,0.787-17.781,0.787c-5.941,0-11.882-0.274-17.702-0.747
			c-3.266-4.682-6.452-9.678-9.521-14.949c-2.99-5.154-5.705-10.387-8.184-15.657c2.439-5.272,5.193-10.543,8.144-15.698
			c3.069-5.311,6.216-10.346,9.481-15.028c5.861-0.511,11.801-0.787,17.781-0.787c5.94,0,11.882,0.275,17.703,0.748
			c3.266,4.681,6.451,9.677,9.521,14.95c2.989,5.152,5.705,10.385,8.183,15.657C546.8,299.083,544.084,304.355,541.134,309.507z
			 M553.842,304.394c2.124,5.271,3.934,10.543,5.428,15.657c-5.153,1.259-10.582,2.32-16.207,3.147
			c1.927-3.029,3.854-6.138,5.665-9.323C550.537,310.728,552.229,307.541,553.842,304.394z M513.95,346.371
			c-3.658-3.777-7.317-7.986-10.937-12.59c3.541,0.158,7.159,0.275,10.819,0.275c3.697,0,7.356-0.078,10.937-0.275
			C521.229,338.384,517.569,342.593,513.95,346.371z M484.682,323.199c-5.587-0.827-10.978-1.85-16.13-3.107
			c1.454-5.076,3.265-10.307,5.312-15.541c1.612,3.148,3.304,6.295,5.152,9.443C480.865,317.14,482.754,320.208,484.682,323.199z
			 M513.755,241.331c3.657,3.777,7.315,7.986,10.936,12.59c-3.542-0.158-7.16-0.275-10.819-0.275c-3.698,0-7.357,0.079-10.938,0.275
			C506.475,249.317,510.134,245.107,513.755,241.331z M484.641,264.503c-1.928,3.028-3.854,6.137-5.664,9.324
			c-1.81,3.147-3.501,6.294-5.113,9.441c-2.125-5.272-3.935-10.543-5.431-15.657C473.587,266.391,479.016,265.329,484.641,264.503z
			 M449.039,313.757c-13.928-5.941-22.936-13.73-22.936-19.907c0-6.175,9.008-14.005,22.936-19.906
			c3.383-1.455,7.08-2.753,10.896-3.973c2.243,7.709,5.191,15.736,8.852,23.958c-3.619,8.184-6.53,16.168-8.734,23.841
			C456.158,316.55,452.461,315.212,449.039,313.757z M470.203,369.974c-5.35-3.068-7.67-14.753-5.861-29.78
			c0.432-3.698,1.14-7.593,2.006-11.566c7.712,1.888,16.13,3.345,24.981,4.288c5.31,7.278,10.818,13.887,16.367,19.67
			c-12.826,11.92-24.864,18.45-33.047,18.45C472.879,370.998,471.383,370.642,470.203,369.974z M563.519,339.996
			c1.85,15.029-0.433,26.713-5.743,29.82c-1.181,0.709-2.715,1.024-4.523,1.024c-8.145,0-20.222-6.493-33.046-18.333
			c5.507-5.783,11.015-12.353,16.246-19.631c8.892-0.945,17.311-2.399,25.021-4.327
			C562.378,332.522,563.086,336.337,563.519,339.996z M578.666,313.757c-3.385,1.455-7.082,2.754-10.898,3.973
			c-2.242-7.711-5.192-15.736-8.852-23.959c3.619-8.183,6.532-16.167,8.733-23.839c3.894,1.219,7.593,2.558,11.055,4.013
			c13.928,5.94,22.935,13.731,22.935,19.906C601.599,300.027,592.592,307.857,578.666,313.757z"/>
		<path fill="#61DAFB" d="M474.452,208.05L474.452,208.05L474.452,208.05z"/>
		<circle fill="#61DAFB" cx="513.833" cy="293.851" r="17.979"/>
		<path fill="#61DAFB" d="M553.016,207.932L553.016,207.932L553.016,207.932z"/>
	</g>
</g>
</svg>
