<?xml version="1.0" standalone="no"?>
<!DOCTYPE svg PUBLIC "-//W3C//DTD SVG 20010904//EN"
 "http://www.w3.org/TR/2001/REC-SVG-20010904/DTD/svg10.dtd">
<svg version="1.0" xmlns="http://www.w3.org/2000/svg"
 width="3200.000000pt" height="2000.000000pt" viewBox="0 0 3200.000000 2000.000000"
 preserveAspectRatio="xMidYMid meet">

<g transform="translate(0.000000,2000.000000) scale(0.100000,-0.100000)"
fill="#000000" stroke="none">
<path d="M13660 15125 c-1290 -1290 -2346 -2347 -2348 -2349 -1 -2 28 -16 65
-31 38 -15 86 -36 108 -45 42 -18 164 -66 313 -124 239 -92 568 -203 782 -266
41 -12 86 -25 100 -30 78 -28 597 -160 760 -195 356 -75 578 -114 890 -159
267 -38 352 -48 625 -71 406 -35 515 -39 1055 -39 337 0 620 5 720 12 587 43
910 82 1421 171 310 54 913 196 1184 280 17 5 64 19 105 31 118 35 347 109
440 142 128 45 461 169 495 184 17 7 71 29 120 49 50 20 104 42 120 49 17 7
45 19 63 26 l34 13 -2349 2349 c-1291 1291 -2350 2348 -2353 2348 -3 0 -1060
-1055 -2350 -2345z"/>
<path d="M9690 11155 c-665 -665 -1071 -1078 -1065 -1083 23 -21 603 -316 790
-402 39 -18 107 -50 153 -71 46 -22 85 -39 87 -39 2 0 41 -17 87 -39 46 -21
124 -55 173 -76 99 -41 109 -45 175 -73 25 -11 99 -41 165 -67 66 -26 134 -53
150 -60 17 -7 107 -41 200 -75 157 -58 229 -84 405 -145 83 -29 311 -103 373
-121 26 -8 70 -21 97 -29 28 -8 73 -22 100 -30 28 -8 71 -21 98 -29 158 -48
450 -127 537 -146 22 -5 85 -20 140 -34 55 -14 141 -35 190 -46 50 -11 108
-24 130 -29 356 -82 903 -177 1350 -235 859 -112 1817 -151 2685 -111 306 14
374 19 735 51 659 58 1448 186 2095 339 30 7 87 21 125 30 402 95 775 203
1235 356 562 187 977 348 1485 577 334 150 1005 488 1012 509 2 4 -480 491
-1070 1081 l-1073 1073 -60 -26 c-32 -15 -77 -35 -99 -45 -22 -9 -85 -36 -140
-59 -105 -45 -157 -67 -190 -81 -320 -143 -1183 -432 -1560 -523 -11 -3 -54
-14 -95 -25 -41 -11 -147 -37 -235 -57 -88 -19 -178 -40 -200 -45 -48 -12
-171 -37 -240 -50 -27 -5 -88 -17 -135 -25 -360 -67 -681 -112 -1070 -150
-147 -14 -247 -22 -610 -45 -203 -13 -1019 -13 -1230 0 -506 32 -605 41 -960
85 -818 102 -1597 279 -2392 545 -208 70 -658 233 -713 260 -11 5 -94 40 -185
78 -153 65 -218 93 -327 143 -24 10 -44 19 -45 19 -2 0 -487 -484 -1078 -1075z"/>
<path d="M12920 5606 c1697 -1697 3087 -3086 3090 -3086 8 0 6160 6154 6160
6162 0 7 -34 -3 -75 -22 -169 -79 -831 -317 -1210 -434 -66 -21 -131 -42 -145
-47 -29 -10 -145 -44 -345 -100 -143 -41 -618 -164 -690 -179 -22 -4 -71 -16
-110 -24 -133 -31 -537 -113 -690 -140 -49 -9 -112 -21 -140 -26 -27 -5 -81
-15 -120 -20 -38 -6 -113 -18 -165 -26 -202 -31 -421 -60 -625 -83 -49 -6
-130 -15 -180 -21 -116 -14 -304 -29 -765 -62 -256 -18 -1544 -18 -1800 0
-458 33 -634 47 -770 63 -373 42 -567 67 -800 103 -52 8 -126 20 -165 26 -38
5 -92 15 -120 20 -27 5 -90 17 -140 26 -119 21 -524 101 -600 119 -203 47
-273 64 -480 116 -348 87 -356 90 -695 191 -91 28 -181 54 -200 60 -191 55
-1008 346 -1062 378 -10 5 -23 10 -28 10 -6 0 -32 9 -58 21 -26 11 -60 26 -77
34 -16 7 -41 16 -55 20 -15 4 1227 -1246 3060 -3079z"/>
</g>
</svg>
